<svg xmlns="http://www.w3.org/2000/svg" viewBox="0 0 640 512"><path fill="#6366f1" d="M320 32c-8.1 0-16.1 1.4-23.7 4.1L15.8 137.4C6.3 140.9 0 149.9 0 160s6.3 19.1 15.8 22.6l57.4 20.9C62.3 227.6 48 260.5 48 296v112c0 26.5 21.5 48 48 48h224c26.5 0 48-21.5 48-48V296c0-35.5-14.3-68.4-25.2-92.5l57.4-20.9c9.5-3.5 15.8-12.5 15.8-22.6s-6.3-19.1-15.8-22.6L343.7 36.1C336.1 33.4 328.1 32 320 32zM288 328v112H96V296c0-14.8 6-28.1 15.6-37.7l139.7 51c10.8 3.9 22.6 3.9 33.4 0l3.3-1.2V328zM624 160c0-10.1-6.3-19.1-15.8-22.6L546.8 115.1l-102.1 37.3 139.7 51c9.5 3.5 15.8 12.5 15.8 22.6v112c0 13.3 10.7 24 24 24s24-10.7 24-24V160z"/></svg>
